<svg clip-rule="evenodd" fill-rule="evenodd" image-rendering="optimizeQuality" shape-rendering="geometricPrecision" text-rendering="geometricPrecision" viewBox="0 0 25574.61 4156.66" xmlns="http://www.w3.org/2000/svg"><g fill-rule="nonzero"><path d="m421.99 1099.13-421.99-928.18h969.76l397 920.35z" fill="#4f46e5"/><g fill="#1e293b"><path d="m1875.37 4156.66h-63.27l-1165.91-2564.43 937.49 1.97 291.69 676.24 913.72-2099.49h898.37z"/><path d="m4224.26 3979.38v-3839.29h2364.31v791.71h-1474.99v694.11h1263.5v786.3h-1263.5v759.18h1496.68v807.99z"/><path d="m7585.56 3964.02v-3964.02h87.68l2390.52 2240.49v-2115.77h845.94v3985.71h-79.54l-2398.64-2240.5v2094.09z"/><path d="m12885.47 155.47v2109.44c0 338.92 62.37 592.89 187.09 760.99 123.82 169.01 312.71 253.06 565.77 253.06 243.12 0 429.3-78.62 556.73-235.88 128.34-156.36 192.51-385.02 192.51-685.08v-2202.53h818.83v2202.53c0 554.03-141.89 986.94-426.58 1296.94-283.79 310-678.75 464.55-1183.96 464.55-510.64 0-907.41-153.64-1191.2-460.93-282.88-307.29-424.78-739.3-424.78-1295.13v-2207.95h905.6z"/><path d="m15837.13 3960.35 1908.8-3036.72h-1713.58l145.51-802.57h3048.48l-1904.28 3025.89h1904.28l-145.51 813.4z"/><path d="m20069.14 3960.35v-3839.29h916.45v3015.04h1496.68v824.25z"/><path d="m23188.61 3960.36v-3839.29h2364.31v791.71h-1474.98v694.11h1263.49v786.3h-1263.49v759.18h1496.67v807.99z"/></g></g></svg>